<svg xmlns="http://www.w3.org/2000/svg" width="87.79" height="12.075">
    <defs>
        <style>
            .cls-1{fill:#002e6b}
        </style>
    </defs>
    <g id="layer1" transform="translate(-101.295 -213.452)">
        <g id="g63141" transform="translate(101.295 213.452)">
            <path id="path52220-4" class="cls-1" d="M232.086 305.144v3.3h-3.744v-3.3h-2.064v8.667h2.064v-3.485h3.744v3.485h2.064v-8.667zm0 0" transform="translate(-198.369 -303.437)"/>
            <path id="path52222-4" class="cls-1" d="m237.834 305.144-2.158 3.433-2.156-3.433h-2.434l3.562 5.665v3h2.061v-3l3.562-5.665zm0 0" transform="translate(-194.492 -303.437)"/>
            <path id="path52224-8" class="cls-1" d="M242.435 305.144v6.356a.427.427 0 0 1-.438.436h-3.306v-6.788h-2.064v8.667h6.1a1.646 1.646 0 0 0 1.772-1.772v-6.9zm0 0" transform="translate(-190.024 -303.437)"/>
            <path id="path52226-8" class="cls-1" d="M248.139 305.144h-6.1v8.667h2.061v-6.791h3.311a.428.428 0 0 1 .436.433v6.357h2.061v-6.9a1.646 1.646 0 0 0-1.772-1.772" transform="translate(-185.657 -303.437)"/>
            <path id="path52228-2" class="cls-1" d="M253.553 305.144h-6.1v8.667h6.1a1.649 1.649 0 0 0 1.77-1.772v-5.123a1.649 1.649 0 0 0-1.77-1.772m-.291 2.325v4.015a.434.434 0 0 1-.438.448h-3.308v-4.911h3.293a.431.431 0 0 1 .453.448" transform="translate(-181.292 -303.437)"/>
            <path id="path52230-5" class="cls-1" d="M254.592 305.144a1.645 1.645 0 0 0-1.77 1.772v6.9h2.056v-2.681h3.746v2.681h2.061v-8.667zm4.033 1.877v2.233h-3.746v-1.792a.439.439 0 0 1 .441-.441zm0 0" transform="translate(-176.966 -303.437)"/>
            <path id="path52232-2" class="cls-1" d="M258.286 313.811h2.064v-8.667h-2.064zm0 0" transform="translate(-172.56 -303.438)"/>
            <path id="path52234-4" class="cls-1" d="M222.616 316.274c6.512 0 11.791-2.7 11.791-6.036s-5.28-6.039-11.791-6.039-11.789 2.7-11.789 6.039 5.28 6.036 11.789 6.036m2.22-2.962a3.353 3.353 0 0 1-1.312 1.817 2.006 2.006 0 0 1-.787.182h-.12a20.553 20.553 0 0 1-5.9-.819l-.065-.025c-.157-.052-.236-.125-.236-.214a.272.272 0 0 1 .1-.192l.107-.095a13.892 13.892 0 0 1 3.791-2.031 18.932 18.932 0 0 1 2.775-.884c.6-.124 2.818-.465 1.645 2.26m5.957-6.086a.237.237 0 0 1 .2-.139.385.385 0 0 1 .244.08c1.384.851 2.205 1.917 2.205 3.069 0 2.081-2.676 3.871-6.5 4.652-.244.05-.408.047-.463-.014-.04-.037-.05-.1 0-.187a.8.8 0 0 1 .1-.142 31 31 0 0 0 4.122-7.127c.035-.072.067-.144.095-.192m-10.36-.077a3.339 3.339 0 0 1 1.312-1.815 1.962 1.962 0 0 1 .787-.182h.117a20.482 20.482 0 0 1 5.9.819l.065.025c.157.052.236.124.236.214a.267.267 0 0 1-.1.189c-.025.025-.06.055-.107.095a13.775 13.775 0 0 1-3.791 2.031 18.789 18.789 0 0 1-2.773.884c-.6.127-2.82.465-1.648-2.26m-2.138-1.566c.246-.047.408-.047.468.014a.155.155 0 0 1 0 .187.875.875 0 0 1-.1.139 31.137 31.137 0 0 0-4.125 7.129 2.154 2.154 0 0 1-.095.192.233.233 0 0 1-.2.139.416.416 0 0 1-.246-.08c-1.384-.851-2.205-1.917-2.205-3.069 0-2.081 2.676-3.871 6.5-4.652" transform="translate(-210.828 -304.199)"/>
        </g>
    </g>
</svg>
