<svg xmlns="http://www.w3.org/2000/svg" width="224.766" height="56.232">
    <defs>
        <filter id="a" x="0" y="0" width="224.766" height="56.232" filterUnits="userSpaceOnUse">
            <feOffset dy="3"/>
            <feGaussianBlur stdDeviation="3" result="blur"/>
            <feFlood flood-opacity=".161"/>
            <feComposite operator="in" in2="blur"/>
            <feComposite in="SourceGraphic"/>
        </filter>
    </defs>
    <g style="filter:url(#a)">
        <path data-name="패스 21" d="M20.574.756A18.916 18.916 0 0 1 13.1-.7a18.059 18.059 0 0 1-5.913-4 18.2 18.2 0 0 1-3.888-6.048 20.314 20.314 0 0 1-1.4-7.614 20.314 20.314 0 0 1 1.4-7.614 18.2 18.2 0 0 1 3.888-6.048 18.059 18.059 0 0 1 5.913-4 18.916 18.916 0 0 1 7.479-1.458 19.077 19.077 0 0 1 9.882 2.457 18.411 18.411 0 0 1 6.588 6.561l-5.243 3.894a13.9 13.9 0 0 0-4.374-4.644 12.016 12.016 0 0 0-6.7-1.728 11.531 11.531 0 0 0-4.833.972 10.989 10.989 0 0 0-3.645 2.646 11.563 11.563 0 0 0-2.322 4 14.978 14.978 0 0 0-.81 4.968 14.909 14.909 0 0 0 .81 4.995A11.608 11.608 0 0 0 12.258-9.4 10.989 10.989 0 0 0 15.9-6.75a11.531 11.531 0 0 0 4.833.972 12.016 12.016 0 0 0 6.7-1.728 13.9 13.9 0 0 0 4.374-4.644l5.238 3.888A18.411 18.411 0 0 1 30.456-1.7 19.077 19.077 0 0 1 20.574.756zm31.86-37.476H60.7L75.006 0h-7.29l-2.97-7.776H48.384L45.414 0h-7.29zm-1.728 22.842H62.37l-5.832-15.336zM91.368.756A19.48 19.48 0 0 1 85.7 0a18.6 18.6 0 0 1-4.4-1.944A15.821 15.821 0 0 1 78-4.617a23.663 23.663 0 0 1-2.346-2.943l4.59-4.482a19.154 19.154 0 0 0 1.863 2.4 12.613 12.613 0 0 0 2.457 2.082 12.616 12.616 0 0 0 3.105 1.46 12.549 12.549 0 0 0 3.807.54 7.8 7.8 0 0 0 5.157-1.485 4.6 4.6 0 0 0 1.755-3.645 3.982 3.982 0 0 0-1.35-3 8.573 8.573 0 0 0-4.59-1.755l-3.186-.486a18.144 18.144 0 0 1-4.428-1.242 12.031 12.031 0 0 1-3.429-2.187 9.333 9.333 0 0 1-2.214-3.078 9.369 9.369 0 0 1-.783-3.861 10.589 10.589 0 0 1 .918-4.374 10.254 10.254 0 0 1 2.646-3.564 12.642 12.642 0 0 1 4.185-2.376 16.616 16.616 0 0 1 5.535-.864 16.8 16.8 0 0 1 7.614 1.677 15.174 15.174 0 0 1 5.346 4.266l-4.482 4.644a11.771 11.771 0 0 0-3.942-3.186 10.578 10.578 0 0 0-4.7-1.08 6.663 6.663 0 0 0-4.293 1.242A3.666 3.666 0 0 0 85.7-27a3.58 3.58 0 0 0 1.188 2.727 6.737 6.737 0 0 0 3.612 1.485l3.132.486q5.724.864 8.856 3.645a9.5 9.5 0 0 1 3.132 7.479 11.238 11.238 0 0 1-1.02 4.833 11.015 11.015 0 0 1-2.916 3.78 13.444 13.444 0 0 1-4.511 2.457 18.452 18.452 0 0 1-5.805.864zM111.4-36.72h14.472a18.928 18.928 0 0 1 5.319.7 11.925 11.925 0 0 1 4.158 2.106 9.165 9.165 0 0 1 2.7 3.591 12.78 12.78 0 0 1 .945 5.1 12.78 12.78 0 0 1-.945 5.1 9.165 9.165 0 0 1-2.7 3.591 11.925 11.925 0 0 1-4.158 2.106 18.928 18.928 0 0 1-5.319.7h-7.452V0h-7.02zm13.61 16.848a8.918 8.918 0 0 0 4.941-1.188q1.809-1.188 1.809-4.158t-1.809-4.158a8.918 8.918 0 0 0-4.941-1.188h-6.588v10.692zm19.278-16.848H170.1v6.156h-18.792v8.964h16.2v6.1h-16.2v9.342H170.1V0h-25.812zm44.928 21.87h-5.832V0h-7.02v-36.72h16.308a15.2 15.2 0 0 1 4.887.756 11.126 11.126 0 0 1 3.861 2.187 9.835 9.835 0 0 1 2.511 3.456 11.218 11.218 0 0 1 .891 4.563 10.377 10.377 0 0 1-2.187 6.75 10.887 10.887 0 0 1-5.859 3.672l11.88 15.174V0h-8.424zm2.7-6.1a6.213 6.213 0 0 0 4.239-1.269 4.481 4.481 0 0 0 1.431-3.537 4.481 4.481 0 0 0-1.431-3.537 6.213 6.213 0 0 0-4.239-1.269h-8.532v9.612z" transform="translate(7.11 43.48)" style="fill:#fff"/>
    </g>
</svg>
